# xmcd
#
# Track frame offsets:
#	180
#	12972
#	23966
#	33558
#	48182
#	62449
#	79387
#	92742
#	103528
#	118026
#	131015
#	148134
#	160395
#	173244
#	190240
#	203314
#
# Disc length: 2931 seconds
#
# Revision: 1
# Processed by: cddbd v1.5.2PL0 Copyright (c) Steve Scherf et al.
# Submitted via: audiograbber 1.83.01
#
DISCID=d50b7110
DTITLE=Various Artist - Classic Country Volume 2
DYEAR=1900
DGENRE=Country
TTITLE0=Susan Raye - LA International Airport
TTITLE1=Glen Campbell - Try A Little Kindness
TTITLE2=George Jones - The Race Is On
TTITLE3=Juice Newton - Love's Been A Little Bit Hard On Me
TTITLE4=McClellan Mike - Song And Dance Man
TTITLE5=Ross Ryan - I Am Pegasus
TTITLE6=Crystal Gayle - Why Have You Left The One You Left Me For
TTITLE7=Ferlin Husky - Gone
TTITLE8=Glen Campbell and Bobbie Gentry - My Elusive Dreams
TTITLE9=Slim Dusty - Walk A Country Mile
TTITLE10=James Blundell - This Road
TTITLE11=Roy Clark - The Tips Of My Fingers
TTITLE12=Billie Jo Spears - '87 Chevrolet
TTITLE13=Johnny Ashcroft - Little Boy Lost
TTITLE14=John Williamson - I'm In The Mood
TTITLE15=The Nitty Gritty Dirt Band - Mr Bojangles
EXTD=
EXTT0=
EXTT1=
EXTT2=
EXTT3=
EXTT4=
EXTT5=
EXTT6=
EXTT7=
EXTT8=
EXTT9=
EXTT10=
EXTT11=
EXTT12=
EXTT13=
EXTT14=
EXTT15=
PLAYORDER=
